# xmcd
#
# Track frame offsets:
#	150
#	21877
#	54049
#	88868
#	105201
#	142183
#	165825
#	192259
#	203763
#	231085
#	242126
#
# Disc length: 3442 seconds
#
# Revision: 0
# Processed by: cddbd v1.5.2PL0 Copyright (c) Steve Scherf et al.
# Submitted via: EZCDAudioConverter 1.3.4.1
#
DISCID=840d700b
DTITLE=V/A - Freedom Rhythm and Sound 2/2
DYEAR=1900
DGENRE=
TTITLE0=Archie Shepp - Attica Blues
TTITLE1=Horace Tapscott and The Pan Afrikan Peoples Arkestra - Peyote Song No. I
TTITLE1=II
TTITLE2=Sun Ra and His Outer Space Arkestra - Nuclear War
TTITLE3=Joe McPhee and John Snyder - Shadow Sculptures
TTITLE4=Errol Parker - Street Ends
TTITLE5=Amina Claudine Myers - 3/4's Of 4/4
TTITLE6=The Pharaohs - Freedom Time
TTITLE7=Edward Larry Gordon - All Pervading
TTITLE8=Michael White - The Blessing Song
TTITLE9=Roy Brooks and The Artistic Truth - Black Survival
TTITLE10=Lloyd McNeill - Dig Where Dat's At
EXTD=
EXTT0=
EXTT1=
EXTT2=
EXTT3=
EXTT4=
EXTT5=
EXTT6=
EXTT7=
EXTT8=
EXTT9=
EXTT10=
PLAYORDER=
